<svg width="231" height="86" viewBox="0 0 231 86" fill="none" xmlns="http://www.w3.org/2000/svg">
<path d="M110.855 41.1972C109.056 41.1452 107.552 40.6382 106.343 39.6761C105.135 38.688 104.531 37.2578 104.531 35.3856C104.531 33.4354 105.097 31.9142 106.228 30.8221C107.359 29.7039 108.902 28.9889 110.855 28.6768C112.809 28.3648 114.995 28.4298 117.411 28.8718V27.4677C117.411 26.5576 117.128 25.8425 116.563 25.3224C115.997 24.7764 115.265 24.4123 114.365 24.2303C113.491 24.0483 112.565 24.0353 111.588 24.1913C110.637 24.3213 109.737 24.6204 108.889 25.0884C108.04 25.5305 107.385 26.1155 106.922 26.8436L105.032 24.8154C105.829 23.8273 106.793 23.0602 107.925 22.5141C109.081 21.9681 110.277 21.617 111.511 21.461C112.745 21.305 113.941 21.344 115.097 21.578C116.254 21.812 117.27 22.2411 118.144 22.8652C118.992 23.3852 119.571 24.0613 119.879 24.8934C120.214 25.6995 120.406 26.6356 120.458 27.7017C120.509 28.7678 120.535 29.912 120.535 31.1341V41.0022H117.45V39.169C116.499 39.8711 115.444 40.3911 114.288 40.7292C113.131 41.0672 111.987 41.2232 110.855 41.1972ZM117.373 36.3997V31.2901C114.313 30.9001 111.884 31.0041 110.084 31.6022C108.284 32.2002 107.385 33.4484 107.385 35.3466C107.385 36.1787 107.616 36.8287 108.079 37.2968C108.567 37.7648 109.184 38.0769 109.93 38.2329C110.701 38.3889 111.537 38.4149 112.437 38.3109C113.336 38.2069 114.223 37.9859 115.097 37.6478C115.972 37.3098 116.73 36.8938 117.373 36.3997Z" fill="white"/>
<path d="M141.278 41.0022H138.231V29.4179C138.231 28.1698 137.961 27.1686 137.421 26.4146C136.907 25.6605 136.239 25.1274 135.416 24.8154C134.619 24.4773 133.783 24.3083 132.909 24.3083C132.061 24.3083 131.213 24.4903 130.364 24.8544C129.541 25.2184 128.847 25.7775 128.282 26.5316C127.716 27.2857 127.433 28.2478 127.433 29.4179V41.0022H124.387V21.5H127.433V23.6062C128.025 22.8002 128.834 22.2151 129.863 21.851C130.891 21.461 131.958 21.266 133.064 21.266C134.555 21.266 135.917 21.578 137.151 22.2021C138.411 22.8262 139.414 23.7493 140.159 24.9714C140.905 26.1675 141.278 27.6497 141.278 29.4179V41.0022Z" fill="white"/>
<path d="M145.646 47.711V44.6686C146.392 44.6686 147.086 44.4996 147.729 44.1616C148.371 43.8495 148.911 43.4205 149.348 42.8744C149.785 42.3544 150.043 41.7693 150.12 41.1192L142.831 21.5H146.186L151.971 37.3748L157.408 21.5H160.802L154.015 39.8711C153.449 41.4833 152.819 42.8614 152.125 44.0056C151.431 45.1757 150.57 46.0728 149.541 46.6969C148.539 47.3469 147.24 47.685 145.646 47.711Z" fill="white"/>
<path d="M193.952 21.5L187.435 41.0022H183.386L178.334 25.1274L173.282 41.0022H169.271L162.716 21.5H165.955L171.277 37.8039L176.56 21.5H180.146L185.43 37.7649L190.713 21.5H193.952Z" fill="white"/>
<path d="M201.428 41.1972C199.628 41.1452 198.124 40.6382 196.916 39.6761C195.707 38.688 195.103 37.2578 195.103 35.3856C195.103 33.4354 195.669 31.9142 196.8 30.8221C197.931 29.7039 199.474 28.9889 201.428 28.6768C203.381 28.3648 205.567 28.4298 207.983 28.8718V27.4677C207.983 26.5576 207.701 25.8425 207.135 25.3224C206.569 24.7764 205.837 24.4123 204.937 24.2303C204.063 24.0483 203.137 24.0353 202.16 24.1913C201.209 24.3213 200.309 24.6204 199.461 25.0884C198.612 25.5305 197.957 26.1155 197.494 26.8436L195.604 24.8154C196.401 23.8273 197.366 23.0602 198.497 22.5141C199.654 21.9681 200.849 21.617 202.083 21.461C203.317 21.305 204.513 21.344 205.67 21.578C206.827 21.812 207.842 22.2411 208.716 22.8652C209.565 23.3852 210.143 24.0613 210.452 24.8934C210.786 25.6995 210.979 26.6356 211.03 27.7017C211.081 28.7678 211.107 29.912 211.107 31.1341V41.0022H208.022V39.169C207.071 39.8711 206.017 40.3911 204.86 40.7292C203.703 41.0672 202.559 41.2232 201.428 41.1972ZM207.945 36.3997V31.2901C204.885 30.9001 202.456 31.0041 200.656 31.6022C198.857 32.2002 197.957 33.4484 197.957 35.3466C197.957 36.1787 198.188 36.8287 198.651 37.2968C199.139 37.7648 199.756 38.0769 200.502 38.2329C201.273 38.3889 202.109 38.4149 203.009 38.3109C203.909 38.2069 204.795 37.9859 205.67 37.6478C206.544 37.3098 207.302 36.8938 207.945 36.3997Z" fill="white"/>
<path d="M215.844 47.711V44.6686C216.59 44.6686 217.284 44.4996 217.927 44.1616C218.57 43.8495 219.109 43.4205 219.547 42.8744C219.984 42.3544 220.241 41.7693 220.318 41.1192L213.029 21.5H216.384L222.169 37.3748L227.606 21.5H231L224.213 39.8711C223.647 41.4833 223.017 42.8614 222.323 44.0056C221.629 45.1757 220.768 46.0728 219.739 46.6969C218.737 47.3469 217.438 47.685 215.844 47.711Z" fill="white"/>
<path d="M109.544 81.1482H104.917V53.8452H109.544V54.8983C111.01 54.0142 112.514 53.6241 114.056 53.7281C115.599 53.8062 117.026 54.2872 118.337 55.1713C119.648 56.0554 120.702 57.2515 121.499 58.7597C122.296 60.2679 122.694 61.9971 122.694 63.9473C122.694 65.7155 122.296 67.3277 121.499 68.7838C120.728 70.24 119.674 71.4101 118.337 72.2942C117.026 73.1523 115.547 73.5944 113.902 73.6204C113.516 73.6204 113.041 73.5944 112.475 73.5424C111.909 73.4904 111.357 73.3994 110.817 73.2694C110.303 73.1133 109.878 72.9183 109.544 72.6843V81.1482ZM109.544 68.2768C111.035 68.9789 112.424 69.2519 113.709 69.0959C114.995 68.9399 116.036 68.4198 116.833 67.5357C117.63 66.6256 118.028 65.4295 118.028 63.9473C118.028 62.2311 117.604 60.879 116.756 59.8908C115.933 58.9027 114.879 58.3437 113.593 58.2137C112.308 58.0836 110.958 58.4477 109.544 59.3058V68.2768Z" fill="white"/>
<path d="M131.333 73.5424C129.379 73.4384 127.901 72.8793 126.899 71.8652C125.896 70.8251 125.395 69.3949 125.395 67.5747C125.395 66.2486 125.729 65.1174 126.397 64.1813C127.066 63.2192 127.953 62.4651 129.058 61.9191C130.164 61.373 131.385 61.035 132.722 60.905C134.084 60.7749 135.46 60.866 136.848 61.178V59.9688C136.848 59.1368 136.514 58.5387 135.845 58.1746C135.177 57.8106 134.354 57.6416 133.377 57.6676C132.426 57.6936 131.462 57.8886 130.485 58.2527C129.534 58.5907 128.762 59.0847 128.171 59.7348L125.587 56.8875C126.564 55.9254 127.721 55.1713 129.058 54.6252C130.395 54.0792 131.77 53.7671 133.184 53.6891C134.624 53.6111 135.974 53.7801 137.234 54.1962C138.519 54.6122 139.573 55.2883 140.396 56.2244C141.039 56.9525 141.399 57.9146 141.476 59.1108C141.553 60.3069 141.591 61.62 141.591 63.0502V73.3474H136.887V71.5532C136.09 72.3072 135.203 72.8403 134.226 73.1523C133.249 73.4384 132.285 73.5684 131.333 73.5424ZM136.732 67.8477V64.4934C134.059 64.2853 132.195 64.4544 131.141 65.0004C130.112 65.5465 129.598 66.3916 129.598 67.5357C129.598 68.2638 129.842 68.7968 130.331 69.1349C130.845 69.4469 131.475 69.6029 132.22 69.6029C132.992 69.5769 133.776 69.4209 134.573 69.1349C135.395 68.8229 136.115 68.3938 136.732 67.8477Z" fill="white"/>
<path d="M146.478 80.1341V75.4536C147.43 75.4796 148.239 75.3236 148.908 74.9855C149.576 74.6735 150.078 74.0234 150.412 73.0353L143.509 53.8452H148.561L153.073 67.6527L157.238 53.8452H162.367L156.351 70.5C155.759 72.1382 155.194 73.5554 154.654 74.7515C154.14 75.9477 153.548 76.9358 152.88 77.7159C152.237 78.522 151.402 79.12 150.373 79.5101C149.371 79.9261 148.072 80.1341 146.478 80.1341Z" fill="white"/>
<path fill-rule="evenodd" clip-rule="evenodd" d="M85.027 43.3564C85.028 43.2377 85.0285 43.1189 85.0285 43C85.0285 42.7743 85.0267 42.5491 85.0233 42.3242V0H65.7414V6.97883C59.0646 2.56555 51.0856 0 42.5142 0C19.0445 0 0.0166743 19.2349 0 42.9688L17.451 29.1106V38.2197H23.4015C25.6983 30.1038 33.0886 24.1637 41.8507 24.1637C50.7491 24.1637 58.2327 30.2902 60.4034 38.6002H67.5672V29.4912L85.027 43.3564Z" fill="#FFB800"/>
<path fill-rule="evenodd" clip-rule="evenodd" d="M85.0256 43.501C85.025 43.5593 85.0242 43.6175 85.0233 43.6758V86H65.7414V79.0212C59.0646 83.4345 51.0856 86 42.5142 86C19.076 86 0.0676266 66.8166 0.000183105 43.1265L17.451 56.9845V47.8755H23.1365C25.0725 56.5221 32.7162 62.9779 41.8507 62.9779C50.8507 62.9779 58.4034 56.7108 60.4756 48.256H67.5672V57.365L85.0256 43.501Z" fill="white"/>
<path d="M41.5016 54.2281C39.8138 54.2281 38.1836 54.0331 36.6109 53.6431C35.0382 53.2532 33.7436 52.7462 32.7271 52.1222L34.9135 47.0915C35.8725 47.657 36.9369 48.1152 38.1068 48.4662C39.296 48.7977 40.4467 48.9634 41.5591 48.9634C42.2112 48.9634 42.7195 48.9244 43.0839 48.8464C43.4675 48.7489 43.7456 48.6222 43.9182 48.4662C44.0908 48.2907 44.1771 48.086 44.1771 47.852C44.1771 47.4815 43.9757 47.189 43.5729 46.9745C43.1702 46.76 42.6332 46.5846 41.9619 46.4481C41.3098 46.2921 40.5906 46.1361 39.8042 45.9801C39.0179 45.8046 38.2219 45.5804 37.4164 45.3074C36.63 45.0344 35.9012 44.6737 35.2299 44.2252C34.5779 43.7767 34.0504 43.1918 33.6477 42.4703C33.2449 41.7293 33.0435 40.8129 33.0435 39.721C33.0435 38.4535 33.3887 37.3031 34.0792 36.2697C34.7888 35.2167 35.8341 34.3783 37.215 33.7543C38.6151 33.1304 40.3508 32.8184 42.4222 32.8184C43.7839 32.8184 45.1265 32.9646 46.4498 33.2571C47.7732 33.5496 48.9623 33.998 50.0172 34.6025L47.9746 39.604C46.9773 39.097 46.0087 38.7168 45.0689 38.4633C44.1483 38.2098 43.2469 38.0831 42.3646 38.0831C41.7125 38.0831 41.1947 38.1416 40.8111 38.2585C40.4275 38.3755 40.1494 38.5315 39.9768 38.7265C39.8234 38.9215 39.7467 39.136 39.7467 39.37C39.7467 39.721 39.9481 40.0037 40.3508 40.2182C40.7536 40.4132 41.281 40.5789 41.9331 40.7154C42.6044 40.8519 43.3332 40.9981 44.1195 41.1541C44.9251 41.3101 45.721 41.5246 46.5074 41.7976C47.2937 42.0706 48.0129 42.4313 48.665 42.8798C49.3363 43.3282 49.8733 43.9132 50.2761 44.6347C50.6789 45.3561 50.8802 46.2531 50.8802 47.3255C50.8802 48.5734 50.5254 49.7239 49.8158 50.7768C49.1253 51.8102 48.0897 52.6487 46.7088 53.2922C45.3278 53.9161 43.5921 54.2281 41.5016 54.2281ZM40.1207 57.2699V53.4676H44.1771V57.2699H40.1207ZM40.1207 33.5788V29.7766H44.1771V33.5788H40.1207Z" fill="white"/>
</svg>
